<?xml version="1.0" encoding="utf-8"?>
<!-- Generator: Adobe Illustrator 15.0.2, SVG Export Plug-In  -->
<!DOCTYPE svg PUBLIC "-//W3C//DTD SVG 1.1//EN" "http://www.w3.org/Graphics/SVG/1.1/DTD/svg11.dtd" [
	<!ENTITY ns_flows "http://ns.adobe.com/Flows/1.0/">
]>
<svg version="1.1"
	 xmlns="http://www.w3.org/2000/svg" xmlns:xlink="http://www.w3.org/1999/xlink" xmlns:a="http://ns.adobe.com/AdobeSVGViewerExtensions/3.0/"
	 x="0px" y="0px" width="105px" height="115px" viewBox="0 0 105 115" overflow="visible" enable-background="new 0 0 105 115"
	 xml:space="preserve">
<defs>
</defs>
<path fill="#EFC15C" d="M74.123,21.117v8.362l6.764-4.916C79.072,22.565,76.807,21.411,74.123,21.117"/>
<path fill="#286277" d="M63.659,53.294l-3.676,3.444l-3.696-3.462l-3.693,3.462l-2.002-1.874v16.402l2.75-2.75
	c2.36-2.359,6.201-2.359,8.559,0c1.145,1.143,1.773,2.662,1.773,4.279s-0.629,3.137-1.773,4.279l-1.946,1.947h34.912v-5.678h-8.071
	v-2.807h8.071V67.97h-8.071v-2.809h8.071v-2.566h-8.071v-2.808h8.071v-2.568h-8.071v-2.808h8.071V11.229H50.592v39.787l2.002,1.875
	l3.693-3.463l3.696,3.463l3.715-3.48l9.308,9.07c0.943-0.668,2.09-1.064,3.331-1.064c3.187,0,5.778,2.592,5.778,5.777
	s-2.592,5.777-5.778,5.777s-5.778-2.592-5.778-5.777c0-0.927,0.225-1.801,0.615-2.578L63.659,53.294z M81.531,43.112
	c0,0-0.002,0-0.002,0.002c-2.485,2.012-5.612,3.119-8.804,3.119c-4.247,0-8.216-1.892-10.886-5.189
	c-2.353-2.906-3.434-6.555-3.043-10.273s2.207-7.062,5.113-9.416c2.555-2.069,5.519-3.119,8.81-3.119
	c4.665,0,8.581,1.995,11.324,5.77c0.001,0.002,0.001,0.003,0.001,0.003C88.422,30.033,87.318,38.425,81.531,43.112"/>
<path fill="#286277" d="M79.309,63.194c0-1.638-1.333-2.97-2.972-2.97c-1.638,0-2.971,1.332-2.971,2.97
	c0,1.639,1.333,2.971,2.971,2.971C77.976,66.165,79.309,64.833,79.309,63.194"/>
<path fill="#F15B52" d="M71.549,33c-0.012-0.017-0.023-0.033-0.034-0.051c-0.011-0.019-0.022-0.036-0.032-0.053
	c-0.013-0.024-0.021-0.05-0.032-0.075c-0.025-0.055-0.05-0.111-0.067-0.17c-0.003-0.008-0.007-0.015-0.01-0.021
	c0-0.005-0.003-0.009-0.004-0.013c-0.006-0.02-0.006-0.039-0.011-0.059c-0.014-0.055-0.023-0.11-0.029-0.167
	c-0.004-0.032-0.007-0.064-0.009-0.099c0-0.02-0.005-0.039-0.005-0.059V21.126c-2.075,0.247-3.966,1.056-5.638,2.41
	c-2.324,1.882-3.777,4.555-4.09,7.528c-0.311,2.973,0.552,5.89,2.436,8.213c2.133,2.636,5.306,4.148,8.702,4.148
	c2.082,0,4.127-0.59,5.89-1.681l-6.986-8.627C71.599,33.081,71.574,33.04,71.549,33"/>
<rect x="69.267" y="87.747" fill="#FFFFFF" width="7.144" height="1.766"/>
<path fill="#276276" d="M82.527,26.843l-7.786,5.658l6.058,7.479C84.182,36.46,84.885,31.12,82.527,26.843"/>
<path fill="#00A99D" d="M45.496,89.509l11.637-11.637l2.783-2.781c0.611-0.613,0.951-1.429,0.951-2.295
	c0-0.867-0.34-1.682-0.951-2.295c-1.264-1.265-3.324-1.264-4.589,0.002l-3.612,3.611l-7.062,7.061l-3.008,3.008L41.029,84.8
	L35.4,90.428l-1.984-1.985l5.628-5.627c0.613-0.613,0.951-1.429,0.951-2.295c0-0.867-0.338-1.682-0.951-2.295
	c-0.612-0.612-1.426-0.949-2.292-0.949h-0.001c-0.392,0-0.769,0.078-1.123,0.21c-0.435,0.159-0.834,0.403-1.171,0.741l-1.604,1.602
	l-2.547,2.547l-1.984-1.984l1.479-1.479v-0.001l1.192-1.191c0.61-0.612,0.948-1.427,0.948-2.293c0-0.867-0.338-1.682-0.949-2.293
	c-0.613-0.614-1.428-0.951-2.294-0.951c-0.867,0-1.683,0.338-2.296,0.951l-1.473,1.473c-0.002,0.003-0.002,0.004-0.005,0.006
	l-0.596,0.596l-0.595,0.596l-1.48,1.479l-1.984-1.986l2.074-2.073l0.598-0.599c1.262-1.266,1.262-3.323-0.004-4.588
	c-0.611-0.613-1.426-0.949-2.293-0.949s-1.682,0.338-2.295,0.95l-2.67,2.671v-0.001l-9.658,9.657C2.139,84.247,0,89.41,0,94.9
	c0,5.491,2.139,10.653,6.021,14.536c8.014,8.015,21.056,8.015,29.072,0l3.098-3.102l0.229-0.229h0.001l0.616-0.615l1.39-1.389
	c0.366-0.367,0.568-0.859,0.568-1.387s-0.203-1.021-0.57-1.389l-1.389-1.389l-5.999,6l-1.985-1.985l13.908-13.909L45.496,89.509z
	 M8.996,107.327c-1.551-1.551-2.803-3.336-3.719-5.308c-2.096-4.509-2.29-9.765-0.533-14.423l2.627,0.991
	c-1.492,3.956-1.327,8.419,0.452,12.248c0.778,1.673,1.84,3.188,3.157,4.507L8.996,107.327z"/>
<path fill="#FFFFFF" d="M98.704,0h-51.95c-3.56,0-6.457,2.896-6.457,6.457v69.167c0.256,0.186,0.504,0.388,0.732,0.617
	c0.826,0.824,1.379,1.85,1.625,2.963l5.13-5.129V8.423h49.89v73.406H57.146L43.93,95.046c0.854,0.418,1.811,0.66,2.824,0.66h51.95
	c3.56,0,6.456-2.897,6.456-6.458V6.457C105.16,2.896,102.264,0,98.704,0 M79.217,92.32H66.459v-7.381h12.758V92.32z"/>
</svg>
